# xmcd CD database file
#
# Track frame offsets:
#	150
#	26303
#	51113
#	71627
#	97675
#	117860
#	142972
#	163699
#	185881
#	208623
#	228386
#	243738
#	259321
#	275776
#
# Disc length: 3865 seconds
#
# Revision: 0
# Processed by: cddbd v1.4PL0 Copyright (c) Steve Scherf et al.
# Submitted via: CDex 1.40Release
#
DISCID=cc0f170e
DTITLE=DAVID BRINSTON - FLY RIGHT
DYEAR=2002
DGENRE=Blues
TTITLE0=STRAIGHTEN UP AND FLY RIGHT
TTITLE1=I PAID THE PRICE
TTITLE2=SAME OLD FEELING
TTITLE3=KICK IT
TTITLE4=AFTER ALL I DO
TTITLE5=DON'T CHANGE THE BLUES
TTITLE6=Y0U'RE SO FREAK GIRL
TTITLE7=I CAUGHT YA
TTITLE8=PARTY (TILL THE LIGHTS GO OUT)
TTITLE9=LOVE ME GIRL
TTITLE10=STRAIGHTEN UP AND FLY RIGHT(RADIO CUT0
TTITLE11=I PAID THE PRICE (RADIO CUT)
TTITLE12=YOU'RE SO FREAK GIRL(RADIO CUT)
TTITLE13=PARTY(TILL THE LIGHTS GO OUT(RADIO CUT))
EXTD=YEAR: 2002 ID3G: 0
EXTT0=
EXTT1=
EXTT2=
EXTT3=
EXTT4=
EXTT5=
EXTT6=
EXTT7=
EXTT8=
EXTT9=
EXTT10=
EXTT11=
EXTT12=
EXTT13=
PLAYORDER=
